<svg width="95" height="70" viewBox="0 0 95 70" fill="none" xmlns="http://www.w3.org/2000/svg">
<path fill-rule="evenodd" clip-rule="evenodd" d="M54.4268 61.7603V61.4483H54.8948L55.7995 61.4801L56.7053 61.418L57.142 61.4488V61.7608C56.7053 61.7608 56.3933 61.9487 56.3933 62.4167V64.7892H61.0746V62.4167C61.0746 61.9487 60.7934 61.7608 60.3248 61.7608V61.4488L60.7928 61.418L61.6668 61.4801L62.6029 61.4483H63.0396V61.7603H62.9775C62.5095 61.7603 62.1974 61.9481 62.1974 62.4162V68.8141C62.1974 69.2508 62.4787 69.4689 62.9154 69.4689H63.0396V69.7809H62.6029L61.6668 69.7501L60.7621 69.8122L60.3243 69.7804V69.4683C60.7923 69.4683 61.0741 69.2816 61.0741 68.8136V65.3808H56.3928V68.8136C56.3928 69.2816 56.7048 69.4683 57.1415 69.4683V69.7804L56.7048 69.8122L55.799 69.7501L54.8942 69.7809H54.4262V69.4689H54.5201C54.9569 69.5007 55.2689 69.2508 55.2689 68.8141V62.4162C55.2694 61.8861 54.8948 61.7603 54.4268 61.7603ZM0 61.4483C0.468023 61.4801 0.905277 61.5103 1.3733 61.5103C1.99733 61.5103 2.65267 61.4483 3.27724 61.4483C5.8673 61.4483 8.20795 62.7902 8.20795 65.6615C8.20795 68.4395 5.99254 69.8122 3.46456 69.8122C2.8713 69.8122 2.27858 69.6881 1.68532 69.7501L0.437254 69.8122H0V69.5002C0.468023 69.5002 0.780039 69.2821 0.780039 68.7515V62.4162C0.780039 61.9481 0.405404 61.7603 0 61.7603V61.4483ZM8.33265 69.8122V69.5002C8.80068 69.4684 9.23739 69.376 9.42471 68.9075L12.296 61.1362L15.4788 68.7202C15.6661 69.1882 15.9781 69.4063 16.4461 69.5002V69.8122H16.1654L15.3228 69.7804L14.6048 69.8122H14.2302V69.5002C14.3862 69.4684 14.5422 69.376 14.5422 69.2195C14.5447 69.1083 14.512 68.9991 14.4488 68.9075L13.4188 66.5047H11.0479L10.2674 68.7515C10.2361 68.8756 10.2053 68.9696 10.2053 69.0943C10.2053 69.4063 10.4865 69.5002 10.7354 69.5002V69.8122C10.4547 69.8122 10.1427 69.7501 9.86196 69.7804L8.6139 69.8122H8.33265ZM17.3514 69.8122V69.5002C17.7881 69.4684 18.0381 69.1882 18.0381 68.7515V61.6043L18.3501 61.4483L24.4668 67.9396V62.3535C24.4668 61.8855 23.9988 61.7597 23.5928 61.7597H23.5615V61.4477H23.9674L24.6849 61.4796L25.8082 61.4175L26.0268 61.4483V61.7603C25.6209 61.7603 25.3407 61.9481 25.3407 62.3541V69.6249L24.9661 69.8128L18.8494 63.4467V68.752C18.8494 69.2821 19.2554 69.4381 19.7234 69.5007V69.8128H19.3487L18.8186 69.7809L17.5387 69.8128L17.3514 69.8122ZM20.3166 30.4588C24.5607 27.3068 29.242 25.7155 34.5787 25.7155C37.4187 25.7155 40.2273 26.1522 42.9426 26.9327L48.2161 28.4302C51.8367 29.4289 55.4573 30.2715 59.2328 30.2715C65.0687 30.2715 69.4694 28.8669 74.0886 25.3408V52.8657H20.3166V30.4588Z" fill="#232323"/>
<path fill-rule="evenodd" clip-rule="evenodd" d="M22.595 0H76.0549V22.6573C72.2783 25.5594 67.909 26.652 63.2277 26.652C59.6419 26.6592 56.0719 26.176 52.617 25.216L50.6823 24.6854L47.0936 23.718C43.879 22.8441 40.5396 22.2827 37.2316 22.2827C31.7395 22.2827 26.9335 24.0301 22.5955 27.3073L22.595 0ZM27.2763 61.4482H27.6817L28.649 61.48C29.0545 61.5108 29.4917 61.4482 29.929 61.4482V61.7602C29.523 61.792 29.211 61.9783 29.211 62.4463V67.0655C29.211 68.3455 30.2097 69.3754 31.4896 69.3754C32.6129 69.3754 33.6737 68.5015 33.6737 67.3468V62.4463C33.6737 61.9475 33.3304 61.7915 32.8936 61.7602V61.4482H33.2677L34.1417 61.48L35.0151 61.4482H35.3277V61.7602C34.891 61.792 34.5784 61.9783 34.5784 62.4463V67.2534C34.5784 68.9382 32.831 70 31.3325 70C29.6785 70 28.0558 68.814 28.0558 67.0655V62.4463C28.0558 61.9783 27.6811 61.7915 27.2757 61.7602V61.4482H27.2763ZM36.8878 61.4482C37.2937 61.4482 37.731 61.5103 38.1677 61.48L38.7296 61.4482H39.1977C40.321 61.4482 41.5696 61.9162 41.5696 63.2269C41.5696 63.9448 41.2263 64.5689 40.6336 65.0067C41.6636 65.3494 42.4749 66.2234 42.4749 67.3473C42.4749 68.97 41.1329 69.8121 39.6349 69.8121C39.229 69.8121 38.7923 69.7501 38.355 69.7803L37.2003 69.8121H36.8883V69.5001H37.0756C37.4503 69.5001 37.6997 69.2502 37.6997 68.8442V62.51C37.6997 61.9788 37.3876 61.7602 36.9196 61.7602H36.8883L36.8878 61.4482ZM44.3157 61.4482H44.7524L45.8763 61.48C46.7497 61.5108 47.6237 61.4482 48.4658 61.4482H48.841V62.822H48.5597C48.4977 62.1041 48.123 61.8233 47.4051 61.8233C47.0304 61.8233 46.6245 61.8854 46.2504 61.9475V65.0061H47.9049C48.279 65.0061 48.5597 64.9122 48.5597 64.4749H48.841V66.1916H48.5597C48.5597 65.7549 48.3098 65.5988 47.9049 65.5988H46.2504V68.5635C46.2504 69.2496 46.8744 69.3123 47.4364 69.3123C48.2159 69.3123 48.8097 69.0013 48.9338 68.1894H49.1838V69.8121L47.811 69.8742L45.7511 69.7803L44.7524 69.8121H44.4712V69.5001C44.8771 69.4683 45.1891 69.3123 45.1891 68.8442V62.51C45.1891 61.948 44.815 61.792 44.3157 61.7602V61.4482ZM64.5076 65.5988C64.5076 63.1022 66.5665 61.2614 69.0011 61.2614C71.4357 61.2614 73.1825 63.0401 73.1825 65.4747C73.1825 67.9093 71.2478 69.9368 68.7512 69.9368C66.3803 69.9368 64.5076 67.9714 64.5076 65.5988ZM83.8558 69.3123L83.919 67.8456L84.2618 67.8774C84.3239 68.7514 84.7298 69.438 85.7285 69.438C86.5404 69.438 87.2583 68.8761 87.2583 68.0021C87.2583 67.316 86.8205 66.8161 86.3223 66.3794L85.2923 65.4747C84.6683 64.9127 84.1376 64.2887 84.1376 63.3829C84.1376 62.0101 85.3236 61.2922 86.6024 61.2922C87.0705 61.2922 87.5385 61.4174 87.9763 61.5734V62.9462L87.6643 63.0083C87.6011 62.2282 87.0705 61.8233 86.2904 61.8233C85.5725 61.8233 84.9484 62.2282 84.9484 63.0083C84.9484 63.6021 85.3544 64.0382 85.7916 64.4129L87.0705 65.5675C87.7263 66.1295 88.1323 66.7535 88.1323 67.6275C88.1323 68.9695 87.1023 69.9363 85.7916 69.9363C85.0737 69.9368 84.4491 69.6561 83.8558 69.3123ZM74.3064 61.4482H74.7431L75.6792 61.48C76.117 61.5108 76.5218 61.4482 76.9591 61.4482V61.7602C76.5532 61.792 76.2411 61.9783 76.2411 62.4463V67.3468C76.2411 68.5015 77.4579 69.3754 78.5197 69.3754C79.6425 69.3754 80.7044 68.5015 80.7044 67.3468V62.4463C80.7044 61.9475 80.3605 61.7915 79.9243 61.7602V61.4482H80.2984L81.1724 61.48L82.0464 61.4482H82.3584V61.7602C81.9206 61.792 81.6086 61.9783 81.6086 62.4463V67.2534C81.6086 68.9382 79.8617 70 78.3632 70C76.7092 70 75.0865 68.814 75.0865 67.0655V62.4463C75.0865 61.9475 74.7124 61.7915 74.3064 61.7602V61.4482ZM90.0044 61.4482H90.4411L91.5639 61.48C92.4379 61.5108 93.2805 61.4482 94.1545 61.4482H94.5286V62.822H94.2479C94.154 62.1041 93.8112 61.8233 93.0932 61.8233C92.7191 61.8233 92.3132 61.8854 91.9386 61.9475V65.0061H93.5915C93.9667 65.0061 94.2474 64.9122 94.2474 64.4749H94.5281V66.1916H94.2474C94.2155 65.7867 93.9974 65.5988 93.5915 65.5988H91.9386V68.5635C91.9386 69.2496 92.5626 69.3123 93.1235 69.3123C93.8733 69.3123 94.5281 69.0013 94.6215 68.1894H94.8714V69.8121L93.4986 69.8742L91.4387 69.7803L90.44 69.8121H90.1593V69.5001C90.5642 69.4683 90.8762 69.3123 90.8762 68.8442V62.51C90.8762 61.948 90.5021 61.792 90.0033 61.7602V61.4482H90.0044Z" fill="#232323"/>
<path fill-rule="evenodd" clip-rule="evenodd" d="M1.90503 62.1348V68.5328C1.90503 69.376 2.99708 69.4067 3.59035 69.4067C5.68161 69.4067 7.08568 67.9719 7.08568 65.8493C7.08568 63.5087 5.40036 61.9481 3.09101 61.9481C2.65376 61.9481 2.27912 62.0101 1.90503 62.1348ZM11.2045 66.0048H13.1711L12.0785 63.5081L11.2045 66.0048ZM38.7925 65.4115V68.6882C38.7925 69.2502 39.4165 69.3754 39.8533 69.3754C40.8519 69.3754 41.4139 68.5954 41.4139 67.6275C41.4139 66.0674 40.1658 65.4115 38.7925 65.4115ZM38.7925 64.9127C38.9485 64.9435 39.1045 64.9435 39.2605 64.9435C40.1653 64.9435 40.6333 64.2266 40.6333 63.3527C40.6333 62.6029 40.2592 61.7607 39.4165 61.7607C39.1994 61.7647 38.986 61.818 38.7925 61.9168V64.9127ZM69.1266 69.376C70.9992 69.376 72.0292 67.722 72.0292 66.0053C72.0292 64.0075 71.0305 61.7607 68.7525 61.7607C66.7859 61.7607 65.6939 63.4774 65.6939 65.2572C65.6933 67.2842 66.9419 69.376 69.1266 69.376Z" fill="#F8F5F2"/>
</svg>
