<svg width="126" height="47" viewBox="0 0 126 47" fill="none" xmlns="http://www.w3.org/2000/svg">
<path d="M112.682 10.4954L113.507 7.49659H118.754C118.754 7.49659 125.802 7.44661 125.802 14.8687C125.802 21.841 118.929 21.5911 118.929 21.5911H107.634L108.458 18.5673H118.205C118.205 18.5673 121.903 18.5673 121.903 14.7188C121.903 10.8703 118.555 10.4954 118.555 10.4954H112.682Z" fill="#232323"/>
<path d="M98.8634 11.0457L102.712 9.39635V17.0184C102.712 17.0184 102.387 21.5167 96.5643 22.0165H27.1912C27.1912 22.0165 21.2935 22.0914 21.2935 16.1188V1.54939L25.2169 0V15.469C25.2169 15.469 24.967 18.5678 28.0908 18.9177H96.3144C96.3144 18.9177 98.6135 18.7427 98.8634 16.9434V11.0457Z" fill="#232323"/>
<path d="M93.6139 23.916H90.1653V27.3147H93.6139V23.916Z" fill="#232323"/>
<path d="M98.8617 23.916H95.4131V27.3147H98.8617V23.916Z" fill="#232323"/>
<path d="M15.94 9.29736V21.9425C15.94 21.9425 15.9899 27.2154 9.59242 27.2154H0.121094L1.87042 24.0416H9.79234C9.79234 24.0416 12.1164 23.8667 12.1164 21.8925V11.1217L15.94 9.29736Z" fill="#232323"/>
<path d="M24.0933 32.6372V46.9317H39.0125V43.583H28.0417V41.0589H34.3643V37.8352H28.0667V35.5611H39.0125V32.6372H24.0933Z" fill="#232323"/>
<path d="M42.6067 32.563H47.7047L52.2529 37.661L56.8762 32.613H61.5993L54.0023 40.31V46.7825H50.1538V40.5849L42.6067 32.563Z" fill="#232323"/>
<path d="M10.196 32.562C8.62166 32.562 0 32.612 0 32.612V46.8815H9.82119C9.82119 46.8815 17.3183 46.5316 17.3183 40.0591C17.3183 33.5866 11.7954 32.562 10.196 32.562ZM9.37137 43.5078C7.59705 43.5078 3.89849 43.5827 3.89849 43.5827V35.6108H9.94614C9.94614 35.6108 13.4698 35.7858 13.4698 39.4343C13.4448 43.0579 11.1457 43.5078 9.37137 43.5078Z" fill="#232323"/>
<path d="M70.0719 32.6128L61.925 46.8573H65.9235L67.5479 43.7835H75.7447L77.494 46.8323H81.8673L73.5955 32.6128H70.0719ZM69.3472 40.6597L71.7462 36.5113L74.0204 40.6597H69.3472Z" fill="#232323"/>
<path d="M92.9652 32.6128L84.8184 46.8573H88.7918L90.4162 43.7835H98.613L100.362 46.8323H104.761L96.4888 32.6128H92.9652ZM92.2405 40.6597L94.6395 36.5113L96.9137 40.6597H92.2405Z" fill="#232323"/>
<path d="M120.053 41.8094C120.053 41.8094 125.076 41.9344 125.076 37.0113C125.076 37.0113 124.976 32.563 120.952 32.563H108.482V46.8574H112.306V41.7094H114.955L120.353 46.8324H126L120.053 41.8094ZM112.356 38.7356V35.5868H119.853C119.853 35.5868 121.302 35.7867 121.302 37.0612C121.302 38.6856 119.853 38.7356 119.853 38.7356H112.356Z" fill="#232323"/>
</svg>
